<svg xmlns="http://www.w3.org/2000/svg" width="400" height="400" viewBox="0 0 400 400">
  <rect fill="#f5f5f5" width="400" height="400"/>
  <path fill="#262626" d="M80 230 Q100 180 200 165 Q320 150 340 220 L340 260 Q320 280 200 280 Q100 280 80 260 Z"/>
  <path fill="#404040" d="M100 200 Q150 150 200 150 Q280 150 320 200 L300 220 Q260 180 200 180 Q140 180 120 220 Z"/>
  <path fill="#fbbf24" d="M150 180 L180 165 L210 180 L180 195 Z"/>
  <path fill="#fbbf24" d="M190 180 L220 165 L250 180 L220 195 Z"/>
  <path fill="#fbbf24" d="M230 180 L260 165 L290 180 L260 195 Z"/>
  <path fill="#171717" d="M100 240 L320 240 L310 270 L110 270 Z"/>
</svg>